<?xml version="1.0" encoding="utf-8"?>
<!-- Generator: Adobe Illustrator 23.0.1, SVG Export Plug-In . SVG Version: 6.00 Build 0)  -->
<svg version="1.1" id="Layer_1" xmlns="http://www.w3.org/2000/svg" xmlns:xlink="http://www.w3.org/1999/xlink" x="0px" y="0px"
	 viewBox="0 0 512 512" style="enable-background:new 0 0 512 512;" xml:space="preserve">
<style type="text/css">
	.st0{fill:#010101;}
</style>
<title>01</title>
<g>
	<path class="st0" d="M256,6C118.2,6,6,118.2,6,256s112.2,250,250,250s250-112.1,250-250S393.9,6,256,6z M400.8,164.8v0.3
		c0.1,1.7-0.4,3.3-1.4,4.6c-6.8,9.2-14.1,17.4-23.2,24.2c-1.3,1-3.5,2-3.5,3.9c0,48.1-12.3,96.2-47.4,131.1
		c-44.7,44.4-111.8,56.5-171.3,40c-11.5-3.2-22.6-7.6-33.2-13.2c-3.5-1.9-6.9-3.9-10.3-6.1c-0.9-0.7-1.5-1.4-0.8-1.8
		c0.7-0.4,1.3-0.4,3.9,0c16.8,1.5,33.7-0.7,49.5-6.3c8.6-3,27.3-9.1,32.6-17.3c0.1-0.2,0.2-0.2,0.4-0.4c-2.2-0.5-4.3-0.5-6.5-0.9
		c-16.2-4.6-37.8-12.7-47.8-40c-0.6-1.6,0-2.4,1.7-2.1c13.3,1,18.1,0.3,22.7-0.7c-2.6-0.5-5.2-1.3-7.7-2.4
		c-20.4-7.8-35.3-27.6-38-49.1c-0.3-2.3-0.5-4.6-0.4-6.9c0.1-1.6,0.8-2.1,2.2-1.2c10.5,5.4,22.2,6.7,23.2,6.5c-2.6-2-5-4.3-7.4-6.5
		c-17.7-16.8-24.5-50.8-10.4-72c1.1-1.7,1.9-1.7,3.3-0.1c32.3,36.8,72.1,54,120.1,61.2c1.3,0.2,1.4,0,1.2-1.4
		c-1.2-8.5-1.4-16.7,0.6-25.1c2.2-8.7,6.2-16.8,11.9-23.8c5.5-6.7,12.2-12.2,19.9-16.2c7.6-4,16-6.4,24.6-7c8.9-0.6,17.8,0.8,26,4.2
		c6.2,2.5,11.9,6,16.9,10.4c1.1,1,2.1,2,3,3.1c0.6,0.7,1.6,0.9,2.4,0.6c12.2-3,23.9-7.5,35-13.4c0.5-0.3,1-0.4,1.6-0.1
		c0.5,0.4,0.3,1,0.1,1.5c-2.1,6.5-5.4,12.6-9.8,17.8c-2.8,3.5-9.8,12-14.5,12.9c10-1.7,20.2-4.2,29.4-8.4
		C400.9,164.2,400.8,164,400.8,164.8z"/>
</g>
</svg>
